<svg xmlns="http://www.w3.org/2000/svg" xmlns:xlink="http://www.w3.org/1999/xlink" version="1.0" x="0px" y="0px" viewBox="0 0 100 100" enable-background="new 0 0 100 100" xml:space="preserve" aria-hidden="true" width="100px" height="100px"><defs><linearGradient class="cerosgradient" data-cerosgradient="true" id="CerosGradient_id5298f7920" gradientUnits="userSpaceOnUse" x1="50%" y1="100%" x2="50%" y2="0%"><stop offset="0%" stop-color="#d1d1d1"/><stop offset="100%" stop-color="#d1d1d1"/></linearGradient><linearGradient/></defs><g display="none"><rect x="0" y="0.015" display="inline" fill="#000000" width="100" height="100"/></g><g><path fill="#000000" d="M95.592,43.95l0.04-0.009l-0.094-0.416C92.39,21.184,73.206,3.995,49.998,3.995   c-25.407,0-46.002,20.596-46.002,46.003C3.995,75.404,24.591,96,49.998,96S96,75.404,96,49.998   C96,47.946,95.852,45.93,95.592,43.95z M91.401,49.998c0,1.82-0.13,3.608-0.358,5.365l-22.517-5.324l22.56-5.076   C91.286,46.615,91.401,48.292,91.401,49.998z M65.527,88.378c-3.092,1.252-6.368,2.142-9.779,2.616l-0.953-29.449l3.465,3.782   L65.527,88.378z M59.36,66.527l15.317,16.715c-2.616,1.945-5.469,3.59-8.509,4.881L59.36,66.527z M54.761,60.482l-0.077-2.369   l1.62,1.006l1.464,4.644L54.761,60.482z M41.577,65.298l4.172-4.663l-1.227,30.394c-3.471-0.459-6.805-1.346-9.949-2.609   L41.577,65.298z M33.925,88.164c-3.029-1.277-5.871-2.907-8.481-4.834L40.48,66.525L33.925,88.164z M42.049,63.741l1.403-4.631   l2.421-1.536l-0.08,1.982L42.049,63.741z M8.594,49.998c0-1.702,0.115-3.377,0.314-5.025l21.968,4.992L8.959,55.419   C8.727,53.643,8.594,51.837,8.594,49.998z M34.542,11.587c3.144-1.266,6.477-2.156,9.948-2.618l1.235,30.054l-3.658-3.881   L34.542,11.587z M40.974,33.983L24.979,17.014c2.73-2.074,5.721-3.821,8.922-5.173L40.974,33.983z M45.769,40.075l0.087,2.123   l-1.906-1.162l-1.397-4.372L45.769,40.075z M58.729,34.546l-3.907,4.145l0.929-29.69c3.469,0.483,6.8,1.393,9.938,2.68   L58.729,34.546z M66.327,11.944c3.167,1.361,6.127,3.108,8.827,5.177L59.789,33.422L66.327,11.944z M58.277,36.031l-1.406,4.618   l-2.152,1.319l0.07-2.237L58.277,36.031z M53.248,51.054l0.521,0.162l0.025,0.772l-1.775,0.926l-0.057-0.082   C52.569,52.402,53.019,51.779,53.248,51.054z M54.587,48.153l-0.069,0.225l0.008-0.258L54.587,48.153z M49.998,51.063   c-0.562,0-1.017-0.455-1.017-1.017s0.455-1.017,1.017-1.017s1.017,0.456,1.017,1.017S50.559,51.063,49.998,51.063z M46.524,50.022   L46.524,50.022L46.524,50.022L46.524,50.022z M46.814,48.645l-0.059-1.425l1.125-0.624l0.005,0.009   c-0.1,0.062-0.207,0.111-0.302,0.182l0.348,0.469C47.448,47.613,47.057,48.087,46.814,48.645z M46.078,47.595l0.005,0.116   L46.05,47.61L46.078,47.595z M45.78,49.027l-0.767,2.533l-3.104-1.652l3.528-1.957L45.78,49.027z M46.173,50.124l-0.081,2.011   l-0.455-0.242L46.173,50.124z M48.051,53.179l-0.184,0.292l0.162-0.305l-1.258-0.67l0.044-1.095c0.532,1.218,1.745,2.07,3.159,2.07   c0.266,0,0.522-0.037,0.771-0.094l0.001,0.006l0.087,0.228L49.8,54.266L48.051,53.179z M54,50.961v-0.009l0.978-2.468l2.733,1.404   l-3.355,1.661L54,50.961z M55.408,47.813l0.048-0.156l4.573,1.081l-1.468,0.765L55.408,47.813z M52.548,46.262l-1.287-1.365   l2.727-1.672l-0.105,3.352L52.548,46.262z M52.187,46.867l0.18-0.294l0,0v0l-0.162,0.303l1.64,0.879l-0.061,1.941l-0.392,0.036   c-0.15-1.767-1.615-3.159-3.42-3.159c-0.24,0-0.474,0.025-0.701,0.072l-0.094-0.472l0.933-0.572L52.187,46.867z M48.182,45.736   l-0.019-0.073l-1.457,0.363l-0.105-2.566l2.366,1.443L48.182,45.736z M45.223,47.283l-4.038,2.24l-1.807-0.962l5.793-1.442   L45.223,47.283z M40.465,49.923l-1.934,1.073l-4.671-1.061l4.515-1.124L40.465,49.923z M41.188,50.308l3.62,1.927l-0.053,0.175   l-5.219-1.186L41.188,50.308z M47.683,53.784l1.058,1.154l-2.123,1.347l0.11-2.718L47.683,53.784z M51.878,53.785l1.959-0.441   l0.113,3.501l-3.092-1.921L51.878,53.785z M54.849,52.218l3.711-1.935l1.696,0.909l-5.351,1.204L54.849,52.218z M59.298,49.898   l1.759-0.917l4.402,1.041l-4.177,0.94L59.298,49.898z M61.99,48.494l26.475-13.806c1.21,3.036,2.071,6.247,2.533,9.588   l-24.007,5.401L61.99,48.494z M60.961,48.251l-5.305-1.254l1.794-5.895L83.229,25.3c1.997,2.682,3.674,5.615,4.981,8.741   L60.961,48.251z M54.987,46.839L54.57,46.74l0.124-3.948l1.875-1.15L54.987,46.839z M54.013,42.401l-3.236,1.983l-0.187-0.198   l3.482-3.695L54.013,42.401z M50.177,44.752l-0.067,0.041l-0.059-0.036l0.065-0.069L50.177,44.752z M49.45,44.39l-2.884-1.758   l-0.073-1.788l3.15,3.342L49.45,44.39z M45.89,43.027l0.13,3.17l-0.391,0.097l-1.359-4.254L45.89,43.027z M44.96,46.46   l-6.493,1.616L11.84,33.903c1.302-3.084,2.968-5.977,4.943-8.626l26.59,16.214L44.96,46.46z M37.464,48.326l-5.099,1.269   l-23.369-5.31c0.469-3.394,1.349-6.655,2.588-9.734L37.464,48.326z M32.372,50.305l5.253,1.194L11.746,65.854   c-1.278-3.079-2.196-6.344-2.699-9.746L32.372,50.305z M38.63,51.727l5.924,1.346l-1.695,5.595L17.036,75.045   c-1.997-2.624-3.687-5.493-5.018-8.556L38.63,51.727z M45.234,53.227l0.807,0.183l-0.134,3.325l-2.148,1.363L45.234,53.227z    M46.584,57.124l2.631-1.669l0.125,0.137l-2.822,3.154L46.584,57.124z M50.392,55.447l3.586,2.228l0.065,2.024l-3.773-4.117   L50.392,55.447z M54.658,57.284l-0.122-3.775l1.45,4.6L54.658,57.284z M55.114,53.057l6.073-1.366l26.95,14.447   c-1.334,3.149-3.05,6.096-5.084,8.789l-26.171-16.26L55.114,53.057z M62.211,51.46l4.781-1.076l23.963,5.666   c-0.482,3.291-1.356,6.453-2.565,9.444L62.211,51.46z M82.804,24.752l-25.05,15.356l1.583-5.201l16.362-17.358   C78.35,19.652,80.737,22.071,82.804,24.752z M55.062,8.914l-0.956,30.538l-3.989,4.232l-3.667-3.89l-1.27-30.91   c1.582-0.183,3.187-0.288,4.818-0.288C51.713,8.594,53.401,8.711,55.062,8.914z M24.434,17.441L41.46,35.504l1.593,4.985   L17.209,24.73C19.307,22.011,21.735,19.564,24.434,17.441z M17.465,75.591L42.553,59.68l-1.602,5.287L24.894,82.915   C22.119,80.796,19.625,78.332,17.465,75.591z M45.212,91.117l1.263-31.292l3.332-3.724l4.271,4.661l0.981,30.32   c-1.66,0.203-3.347,0.319-5.061,0.319C48.378,91.401,46.783,91.298,45.212,91.117z M75.227,82.817l-16.36-17.854l-1.666-5.286   l25.423,15.796C80.475,78.22,77.991,80.689,75.227,82.817z"/></g></svg>