<svg xmlns="http://www.w3.org/2000/svg" xmlns:xlink="http://www.w3.org/1999/xlink" version="1.1" x="0px" y="0px" viewBox="0 0 100 100" enable-background="new 0 0 100 100" xml:space="preserve" aria-hidden="true" width="100px" height="100px" style="fill:url(#CerosGradient_idb787b6299);"><defs><linearGradient class="cerosgradient" data-cerosgradient="true" id="CerosGradient_idb787b6299" gradientUnits="userSpaceOnUse" x1="50%" y1="100%" x2="50%" y2="0%"><stop offset="0%" stop-color="#FFFFFF"/><stop offset="100%" stop-color="#FFFFFF"/></linearGradient><linearGradient/></defs><path d="M86.586,17.871c0,0,0.353-0.315-2.52,0c-14.134,1.548-56.733,7.633-40.254,19.928C64.29,53.078,61.2,58.366,30.958,72.321  C3.629,84.931,46.665,89.729,67.766,78.893c12.684-6.512,22.813-24.521,6.274-39.35C60.814,27.687,83.163,17.871,86.586,17.871" style="fill:url(#CerosGradient_idb787b6299);"/><path d="M78.04,14.587c-0.738,0.417-56.007,9.108-42.782,20.964c16.539,14.828,20.498,16.29,8.418,23.863  C23.262,72.217-2.226,79.561,18.72,68.628c26.683-13.926,29.229-16.825,11.405-33.079C12.769,19.726,62.268,15.241,62.268,15.241  S78.778,14.17,78.04,14.587z" style="fill:url(#CerosGradient_idb787b6299);"/></svg>