<svg xmlns="http://www.w3.org/2000/svg" xmlns:xlink="http://www.w3.org/1999/xlink" version="1.1" x="0px" y="0px" viewBox="0 0 100 100" enable-background="new 0 0 100 100" xml:space="preserve" aria-hidden="true" width="100px" height="100px" style="fill:url(#CerosGradient_id8ba7d704b);"><defs><linearGradient class="cerosgradient" data-cerosgradient="true" id="CerosGradient_id8ba7d704b" gradientUnits="userSpaceOnUse" x1="50%" y1="100%" x2="50%" y2="0%"><stop offset="0%" stop-color="#101010"/><stop offset="100%" stop-color="#101010"/></linearGradient><linearGradient/></defs><g display="none"><path display="inline" fill="none" stroke="#000000" stroke-width="0.25" stroke-linecap="round" stroke-linejoin="round" stroke-miterlimit="10" d="   M86,65.67H15.25c0,0-0.25,0.16,1.25-1.17c0.75-0.66,5.33-8.66,9.73-16.5c1.09-1.94,2.17-3.88,3.18-5.69h10.64   c0.93,1.91,1.62,3.36,1.62,3.36s0,0,1.33-2.67c0.44-0.89,1.58-2.88,2.9-5.16h12.38c2.67,4.08,5.39,8.16,5.39,8.16l0.48-1.06H75.5   C79.98,53.84,86,65.67,86,65.67z M34.83,32.5c0,0-2.38,4.34-5.42,9.81h10.64c-1.68-3.47-4.12-8.44-4.55-8.98   C34.83,32.5,34.83,32.5,34.83,32.5z M70.83,35.5c-1.16-2.67-1.16-2.67-1.16-2.67l-5.52,12.11H75.5   C73.16,40.28,71.24,36.42,70.83,35.5z M52,27.5c0,0-3.43,5.74-6.1,10.34h12.38c-2.19-3.36-4.35-6.71-4.95-7.84   C52,27.5,52,27.5,52,27.5z" style="stroke:url(#CerosGradient_id8ba7d704b);"/></g><g display="none"><g display="inline"><g><g><polygon points="75.5,44.55 86,65.67 15.25,65.67 29.14,42.15 29.41,42.31 39.92,42.31 41.67,45.67 46.22,37.66 58.41,37.66       63.67,46 64.33,44.55     " style="fill:url(#CerosGradient_id8ba7d704b);"/></g><g><polyline fill="none" stroke="#000000" stroke-width="0.25" stroke-linecap="round" stroke-linejoin="round" stroke-miterlimit="10" points="      86,65.67 75.5,44.55 69.67,32.83     " style="stroke:url(#CerosGradient_id8ba7d704b);"/><polyline fill="none" stroke="#000000" stroke-width="0.25" stroke-linecap="round" stroke-linejoin="round" stroke-miterlimit="10" points="      63.67,46 64.33,44.55 69.67,32.83     " style="stroke:url(#CerosGradient_id8ba7d704b);"/><polyline fill="none" stroke="#000000" stroke-width="0.25" stroke-linecap="round" stroke-linejoin="round" stroke-miterlimit="10" points="      52,27.5 58.41,37.66 63.67,46     " style="stroke:url(#CerosGradient_id8ba7d704b);"/><polyline fill="none" stroke="#000000" stroke-width="0.25" stroke-linecap="round" stroke-linejoin="round" stroke-miterlimit="10" points="      41.67,45.67 46.22,37.66 52,27.5     " style="stroke:url(#CerosGradient_id8ba7d704b);"/><polyline fill="none" stroke="#000000" stroke-width="0.25" stroke-linecap="round" stroke-linejoin="round" stroke-miterlimit="10" points="      34.83,32.5 39.92,42.31 41.67,45.67     " style="stroke:url(#CerosGradient_id8ba7d704b);"/><polyline fill="none" stroke="#000000" stroke-width="0.25" stroke-linecap="round" stroke-linejoin="round" stroke-miterlimit="10" points="      15.25,65.67 29.14,42.15 34.83,32.5     " style="stroke:url(#CerosGradient_id8ba7d704b);"/><line fill="none" stroke="#000000" stroke-width="0.25" stroke-linecap="round" stroke-linejoin="round" stroke-miterlimit="10" x1="15.25" y1="65.67" x2="86" y2="65.67" style="stroke:url(#CerosGradient_id8ba7d704b);"/><polyline fill="none" stroke="#000000" stroke-width="0.25" stroke-linecap="round" stroke-linejoin="round" stroke-miterlimit="10" points="      75.5,44.55 64.33,44.55 64.15,44.55     " style="stroke:url(#CerosGradient_id8ba7d704b);"/><polyline fill="none" stroke="#000000" stroke-width="0.25" stroke-linecap="round" stroke-linejoin="round" stroke-miterlimit="10" points="      58.41,37.66 46.22,37.66 46.12,37.66     " style="stroke:url(#CerosGradient_id8ba7d704b);"/><line fill="none" stroke="#000000" stroke-width="0.25" stroke-linecap="round" stroke-linejoin="round" stroke-miterlimit="10" x1="39.92" y1="42.31" x2="29.41" y2="42.31" style="stroke:url(#CerosGradient_id8ba7d704b);"/></g></g></g></g><g display="none"><polygon display="inline" fill="none" stroke="#000000" stroke-width="0.25" stroke-linecap="round" stroke-linejoin="round" stroke-miterlimit="10" points="   65.317,70.283 58.531,61.954 58.531,57.944 60.227,55.476 60.073,52.546 53.904,44.063 51.899,44.063 51.899,34.654 54.829,24.938    48.043,33.883 44.187,33.575 36.784,45.759 32.928,46.376 17.813,70.283  " style="stroke:url(#CerosGradient_id8ba7d704b);"/><polygon display="inline" stroke="#000000" stroke-width="0.25" stroke-linecap="round" stroke-linejoin="round" stroke-miterlimit="10" points="   54.829,24.938 61.153,40.824 63.929,40.824 66.088,36.351 73.338,45.759 76.731,56.247 82.438,70.283 65.317,70.283 58.531,61.954    58.531,57.944 60.227,55.476 60.073,52.546 53.904,44.063 51.899,44.063 51.899,34.654  " style="fill:url(#CerosGradient_id8ba7d704b);stroke:url(#CerosGradient_id8ba7d704b);"/></g><g display="none"><polygon display="inline" fill="none" stroke="#000000" stroke-width="0.25" stroke-linecap="round" stroke-linejoin="round" stroke-miterlimit="10" points="   21,68.083 25,57.583 25.917,44.75 25.917,40.333 17.75,51.083 14.5,51.083 3.333,68.083  " style="stroke:url(#CerosGradient_id8ba7d704b);"/><polygon display="inline" fill="none" stroke="#000000" stroke-width="0.25" stroke-linecap="round" stroke-linejoin="round" stroke-miterlimit="10" points="   29.417,68.083 44.833,68.083 45.167,45.75 41.333,53.417 38.083,55.583 37.083,59.5 33.167,59.167  " style="stroke:url(#CerosGradient_id8ba7d704b);"/><path display="inline" stroke="#000000" stroke-width="0.25" stroke-linecap="round" stroke-linejoin="round" stroke-miterlimit="10" d="   M77.083,68.083l-4.167-10.25l-1.25-10L72,37.75l-9.25,11.833l-8.167-8.333L52.5,42.5H41.833l-2.917,1.583L35.5,50.417L33,50.5   l-7.083-10.167v4.417L25,57.583l-4,10.5h8.417l3.75-8.917l3.917,0.333l1-3.917l3.25-2.167l3.833-7.667l-0.333,22.333H77.083z    M55.5,44.917c0,0,12.5,16,12.5,16.25s0,3.25,0,3.25h-3l-8-9.083l0.417-4.083L55.5,47.667V44.917z" style="fill:url(#CerosGradient_id8ba7d704b);stroke:url(#CerosGradient_id8ba7d704b);"/><polygon display="inline" fill="none" stroke="#000000" stroke-width="0.25" stroke-linecap="round" stroke-linejoin="round" stroke-miterlimit="10" points="   41.833,42.5 47.333,30.833 54.583,41.25 52.5,42.5  " style="stroke:url(#CerosGradient_id8ba7d704b);"/><polygon display="inline" fill="none" stroke="#000000" stroke-width="0.25" stroke-linecap="round" stroke-linejoin="round" stroke-miterlimit="10" points="   72,37.75 81,50 85,50 96.917,68.083 77.083,68.083 72.917,57.833 71.667,47.833  " style="stroke:url(#CerosGradient_id8ba7d704b);"/></g><g display="none"><g display="inline"><polygon stroke="#000000" stroke-width="0.25" stroke-linecap="round" stroke-linejoin="round" stroke-miterlimit="10" points="    93.875,67.875 85.375,55.875 73.625,47.125 68.5,48.25 65.5,50 60.125,48.75 48.875,36.375 40.5,39.5 33.81,52.125 32.75,54.125     20,54 8.875,67.875   " style="fill:url(#CerosGradient_id8ba7d704b);stroke:url(#CerosGradient_id8ba7d704b);"/><polygon fill="none" stroke="#000000" stroke-width="0.25" stroke-linecap="round" stroke-linejoin="round" stroke-miterlimit="10" points="    73.625,47.125 63.625,38.75 57.269,45.608 60.125,48.75 65.5,50 68.5,48.25   " style="stroke:url(#CerosGradient_id8ba7d704b);"/><polygon fill="none" stroke="#000000" stroke-width="0.25" stroke-linecap="round" stroke-linejoin="round" stroke-miterlimit="10" points="    40.5,39.5 45.5,30.25 48.875,36.375   " style="stroke:url(#CerosGradient_id8ba7d704b);"/><polygon fill="none" stroke="#000000" stroke-width="0.25" stroke-linecap="round" stroke-linejoin="round" stroke-miterlimit="10" points="    33.81,52.125 26.625,45.125 20,54 32.75,54.125   " style="stroke:url(#CerosGradient_id8ba7d704b);"/></g></g><g display="none"><polygon display="inline" stroke="#000000" stroke-width="0.25" stroke-miterlimit="10" points="94.25,67.75 85.25,55.625    72.875,46.875 66.625,50 61,50 49.125,36.375 44.25,39.25 40.75,39.625 33.25,53 20,53.375 8.375,67.75  " style="fill:url(#CerosGradient_id8ba7d704b);stroke:url(#CerosGradient_id8ba7d704b);"/><polygon display="inline" fill="none" stroke="#000000" stroke-width="0.25" stroke-miterlimit="10" points="72.875,46.875    63.875,38.875 57.206,45.647 61,50 66.625,50  " style="stroke:url(#CerosGradient_id8ba7d704b);"/><polygon display="inline" fill="none" stroke="#000000" stroke-width="0.25" stroke-miterlimit="10" points="40.75,39.625    45.5,30.625 49.125,36.375 44.25,39.25  " style="stroke:url(#CerosGradient_id8ba7d704b);"/><polygon display="inline" fill="none" stroke="#000000" stroke-width="0.25" stroke-miterlimit="10" points="20,53.375 27,45    34.229,51.254 33.25,53  " style="stroke:url(#CerosGradient_id8ba7d704b);"/></g><g display="none"><polygon display="inline" stroke="#000000" stroke-width="0.25" stroke-miterlimit="10" points="96.875,67.375 83.75,54.375    78.125,54.375 66.5,43.5 66.5,49.125 74.625,59.625 80,59.875  " style="fill:url(#CerosGradient_id8ba7d704b);stroke:url(#CerosGradient_id8ba7d704b);"/><polyline display="inline" fill="none" stroke="#000000" stroke-width="0.25" stroke-miterlimit="10" points="66.5,43.5 62.125,45    47.125,30 50,37 47.125,39.5 47.125,44 39,46.5 32.375,38.25 32.375,46.5 27.625,51 27.625,59.75 21.5,60.625 14.625,67.375    42.125,67.375 46.75,64.375 46.875,57.25 54.625,52.125 54.5,40 59.875,52.5 57.875,60 64.5,67.375 96.875,67.375  " style="stroke:url(#CerosGradient_id8ba7d704b);"/><polygon display="inline" stroke="#000000" stroke-width="0.25" stroke-miterlimit="10" points="64.5,67.375 57.875,60    59.875,52.5 54.5,40 54.625,52.125 46.875,57.25 46.75,64.375 42.125,67.375  " style="fill:url(#CerosGradient_id8ba7d704b);stroke:url(#CerosGradient_id8ba7d704b);"/><polygon display="inline" stroke="#000000" stroke-width="0.25" stroke-miterlimit="10" points="47.125,30 39,46.5 47.125,44    47.125,39.5 50,37  " style="fill:url(#CerosGradient_id8ba7d704b);stroke:url(#CerosGradient_id8ba7d704b);"/><polygon display="inline" stroke="#000000" stroke-width="0.25" stroke-miterlimit="10" points="32.375,38.25 23.625,50 20.25,50    12.625,59.75 8.375,59.75 2.125,67.375 14.625,67.375 21.5,60.625 27.625,59.75 27.625,51 32.375,46.5  " style="fill:url(#CerosGradient_id8ba7d704b);stroke:url(#CerosGradient_id8ba7d704b);"/></g><g display="none"><path display="inline" stroke="#000000" stroke-width="0.25" stroke-linecap="round" stroke-linejoin="round" stroke-miterlimit="10" d="   M79.5,50l-10-11.5l2.625,6.125l-0.625,11.5l-2.875,1.75V50l-4.25-4.875l-2.75,0.125v9.125L59,58.25l-2.75-0.5l2-4.563l-0.125-1.938   h-2.75l1-5.25l-2.125-5L50,47.25l2.5,4.625l-4.875,10L45.25,51l-1.625-7.25L40.25,40l1.299-2.951l2.826-6.424l-8.5,10.5l-3-0.125   L5.25,67.875h87.625L79.5,50z M33.25,45.5L28,55v-6.375l5.25-5.25V45.5z M39.25,60.25L36.625,63l-1.75-5.5l1.75-9h1.313l1.313,4.25   V60.25z" style="fill:url(#CerosGradient_id8ba7d704b);stroke:url(#CerosGradient_id8ba7d704b);"/><polygon display="inline" fill="none" stroke="#000000" stroke-width="0.25" stroke-linecap="round" stroke-linejoin="round" stroke-miterlimit="10" points="   54.25,41 51.125,35.125 44.375,30.625 40.25,40 43.625,43.75 47.625,61.875 52.5,51.875 50,47.25  " style="stroke:url(#CerosGradient_id8ba7d704b);"/><polygon display="inline" fill="none" stroke="#000000" stroke-width="0.25" stroke-linecap="round" stroke-linejoin="round" stroke-miterlimit="10" points="   54.25,41 57.25,36.375 61.625,45.25 61.625,54.375 59,58.25 56.25,57.75 58.25,53.188 58.125,51.25 55.375,51.25 56.375,46  " style="stroke:url(#CerosGradient_id8ba7d704b);"/><polygon display="inline" fill="none" stroke="#000000" stroke-width="0.25" stroke-linecap="round" stroke-linejoin="round" stroke-miterlimit="10" points="   64.375,45.125 69.5,38.5 72.125,44.625 71.5,56.125 68.625,57.875 68.625,50  " style="stroke:url(#CerosGradient_id8ba7d704b);"/></g><g display="none"><path display="inline" stroke="#000000" stroke-miterlimit="10" d="M17,56.875l9.875-5.75L31.25,54l12.5-9.25l3,5.25l12.125-11.875   L69,52l4.25-3.5l8.625,9l-8.5-7.5l-5,5.375l-9.5-16L47.5,54.625l-3.781-9.281l-11.313,11.75l-5.625-5.438l-7.25,5.438h-2.875   L17,56.875z" style="fill:url(#CerosGradient_id8ba7d704b);stroke:url(#CerosGradient_id8ba7d704b);"/></g><g display="none"><path display="inline" stroke="#000000" stroke-linecap="round" stroke-linejoin="round" stroke-miterlimit="10" d="M26,34   l-0.917,6.25L20.75,45l1.417,1.417L21,50l-6.167,1.583l-1.667,7.25H1.583L26,34z M37.583,37l-5.5,4l8.083,10.583l0.417-5.75l-3.5-3   L37.583,37z M45.417,46.417c0,0,10,12.333,10.417,12.417C56.25,58.917,58.75,54.5,58.75,54.5l-4.583-8.583l2.583-3.333l0.917-10.25   L45.417,46.417z M71.667,47.167L80,55.083l0.833-3.958l-1.583-2.208l2-2.5v-7.083L71.667,47.167z M32.083,41L26,34 M45.417,46.417   L37.583,37 M71.667,47.167l-14-14.833 M81.25,39.333l16.5,19.5" style="fill:url(#CerosGradient_id8ba7d704b);stroke:url(#CerosGradient_id8ba7d704b);"/></g><g display="none"><polyline display="inline" fill="none" stroke="#000000" stroke-width="0.25" stroke-linecap="square" stroke-miterlimit="10" points="   96,57.125 91.25,48.375 87.625,54.125 78.5,41.75 73.25,47.875 70.25,43.625 65.625,47.25 63.625,44.375 63.625,41.375 57.5,35.75    54.5,35.75 50,30.375 42.125,38.875 38.75,35.875 31.875,43.75 29,41.25 19.5,51.375 16.875,50 11.25,54.625 8,54.5 5.5,57.125     " style="stroke:url(#CerosGradient_id8ba7d704b);"/><polyline display="inline" fill="none" stroke="#000000" stroke-width="0.25" stroke-linecap="square" stroke-miterlimit="10" points="   17.25,56.375 20.375,54.625 25.875,54.625  " style="stroke:url(#CerosGradient_id8ba7d704b);"/><polyline display="inline" fill="none" stroke="#000000" stroke-width="0.25" stroke-linecap="square" stroke-miterlimit="10" points="   25.875,51.375 30.75,47.375 31.875,43.75  " style="stroke:url(#CerosGradient_id8ba7d704b);"/><polyline display="inline" fill="none" stroke="#000000" stroke-width="0.25" stroke-linecap="square" stroke-miterlimit="10" points="   41.5,51.375 48.125,47.563 53.625,50.625 56.125,50 58,53.25 61.75,53.25  " style="stroke:url(#CerosGradient_id8ba7d704b);"/><polyline display="inline" fill="none" stroke="#000000" stroke-width="0.25" stroke-linecap="square" stroke-miterlimit="10" points="   64.375,51.375 65.875,49.25 65.625,47.25  " style="stroke:url(#CerosGradient_id8ba7d704b);"/><path display="inline" fill="none" stroke="#000000" stroke-width="0.25" stroke-linecap="square" stroke-miterlimit="10" d="   M70.25,52.375c0,0,2.25-1.938,2.625-1.969s4.375,1.969,4.375,1.969l1.375-0.985" style="stroke:url(#CerosGradient_id8ba7d704b);"/><polyline display="inline" fill="none" stroke="#000000" stroke-width="0.25" stroke-linecap="square" stroke-miterlimit="10" points="   37.875,45.5 39.625,41.5 42.125,38.875  " style="stroke:url(#CerosGradient_id8ba7d704b);"/><polyline display="inline" fill="none" stroke="#000000" stroke-width="0.25" stroke-linecap="square" stroke-miterlimit="10" points="   53.625,43.75 55.25,41 54.5,35.75  " style="stroke:url(#CerosGradient_id8ba7d704b);"/></g><g display="none"><polygon display="inline" stroke="#000000" stroke-width="0.5" stroke-linecap="round" stroke-linejoin="round" stroke-miterlimit="10" points="   53.125,42.125 52.875,31.75 42.625,42.125 37.375,42.125 41.75,45 46.5,48.625 52.875,56 56.625,55.875 52.375,45  " style="fill:url(#CerosGradient_id8ba7d704b);stroke:url(#CerosGradient_id8ba7d704b);"/><polygon display="inline" stroke="#000000" stroke-width="0.5" stroke-linecap="round" stroke-linejoin="round" stroke-miterlimit="10" points="   23.25,58.25 27.125,49.375 31.375,50 37.375,42.125 37.375,57  " style="fill:url(#CerosGradient_id8ba7d704b);stroke:url(#CerosGradient_id8ba7d704b);"/><polyline display="inline" fill="none" stroke="#000000" stroke-width="0.5" stroke-linecap="round" stroke-linejoin="round" stroke-miterlimit="10" points="   85,58.25 78.375,48.5 73,46.375 67.75,38.25 59.125,36.625 52.875,31.75  " style="stroke:url(#CerosGradient_id8ba7d704b);"/></g><g display="none"><path display="inline" fill="none" stroke="#000000" stroke-width="0.5" stroke-linecap="round" stroke-linejoin="round" stroke-miterlimit="10" d="   M17.25,56.438" style="stroke:url(#CerosGradient_id8ba7d704b);"/><polygon display="inline" stroke="#000000" stroke-width="0.5" stroke-linecap="round" stroke-linejoin="round" stroke-miterlimit="10" points="   27.875,51.063 32.313,44.563 35.375,43.813 40.188,37 40.188,44.031 33.438,49.875  " style="fill:url(#CerosGradient_id8ba7d704b);stroke:url(#CerosGradient_id8ba7d704b);"/><polygon display="inline" stroke="#000000" stroke-width="0.5" stroke-linecap="round" stroke-linejoin="round" stroke-miterlimit="10" points="   45.625,42.188 51.063,30.313 50.75,37  " style="fill:url(#CerosGradient_id8ba7d704b);stroke:url(#CerosGradient_id8ba7d704b);"/><polygon display="inline" stroke="#000000" stroke-width="0.5" stroke-linecap="round" stroke-linejoin="round" stroke-miterlimit="10" points="   63.875,40.563 68.5,51.813 73.25,51.813 84.438,57 75.813,48.063 71.563,47.563  " style="fill:url(#CerosGradient_id8ba7d704b);stroke:url(#CerosGradient_id8ba7d704b);"/><polyline display="inline" fill="none" stroke="#000000" stroke-width="0.5" stroke-linecap="round" stroke-linejoin="round" stroke-miterlimit="10" points="   63.875,40.563 59.875,40.563 51.063,30.313  " style="stroke:url(#CerosGradient_id8ba7d704b);"/><line display="inline" fill="none" stroke="#000000" stroke-width="0.5" stroke-linecap="round" stroke-linejoin="round" stroke-miterlimit="10" x1="45.625" y1="42.188" x2="40.188" y2="37" style="stroke:url(#CerosGradient_id8ba7d704b);"/><polyline display="inline" fill="none" stroke="#000000" stroke-width="0.5" stroke-linecap="round" stroke-linejoin="round" stroke-miterlimit="10" points="   27.875,51.063 23.813,51.5 16.125,57  " style="stroke:url(#CerosGradient_id8ba7d704b);"/></g><g display="none"><path display="inline" fill="none" stroke="#000000" stroke-width="0.5" stroke-linecap="round" stroke-linejoin="round" stroke-miterlimit="10" d="   M53.529,40.083l4.083-4.833l15.167,17.667l2.25-1.75l6.417,9.583 M48.196,45.083 M56.049,37.1l-7.02-7.184L35.151,47.699    M48.196,45.083l-5.026-7.659 M38.862,53.333 M33.196,45.083 M39.362,53.333l-6.167-8.25l-5.917,11L23.612,55.5l-5.583,5.25" style="stroke:url(#CerosGradient_id8ba7d704b);"/></g><g display="none"><path display="inline" stroke="#000000" stroke-miterlimit="10" d="M79,53.25l-11.5,0.5l-10-10.25l-11.75-0.25l-10.75,9L30.25,66.5   h-17L17,64.75l7-17.375L26.25,50L39,28.25l4.5,5H50l11,6.25L70.25,50l11.25-2.5l13,19L79,53.25z" style="fill:url(#CerosGradient_id8ba7d704b);stroke:url(#CerosGradient_id8ba7d704b);"/></g><g display="none"><path display="inline" stroke="#000000" stroke-width="0.5" stroke-linecap="round" stroke-linejoin="round" stroke-miterlimit="10" d="   M71.126,69l-9.278-14.274V34.742L94.25,69H71.126z M67.129,69L39.58,24.465l-4.14,36.114L43.434,69H67.129z M40.508,69   L19.596,46.732L18.597,64.86l-6.709-8.707L5.75,69H40.508z" style="fill:url(#CerosGradient_id8ba7d704b);stroke:url(#CerosGradient_id8ba7d704b);"/><polygon display="inline" fill="none" stroke="#000000" stroke-width="0.5" stroke-linecap="round" stroke-linejoin="round" stroke-miterlimit="10" points="   35.44,60.578 25.02,49.873 39.58,24.465  " style="stroke:url(#CerosGradient_id8ba7d704b);"/><polygon display="inline" fill="none" stroke="#000000" stroke-width="0.5" stroke-linecap="round" stroke-linejoin="round" stroke-miterlimit="10" points="   61.848,54.726 56.138,45.305 61.848,34.742  " style="stroke:url(#CerosGradient_id8ba7d704b);"/><path display="inline" fill="none" stroke="#000000" stroke-width="0.5" stroke-linecap="round" stroke-linejoin="round" stroke-miterlimit="10" d="   M19.596,46.732c-0.285,1.142-4.299,13.846-4.299,13.846" style="stroke:url(#CerosGradient_id8ba7d704b);"/></g><g display="none"><polyline display="inline" fill="none" stroke="#000000" stroke-width="0.5" stroke-linecap="round" stroke-linejoin="round" stroke-miterlimit="10" points="   4.833,66.458 15.563,52.464 26.525,61.794 56.148,29.606 76.207,52.464 84.837,43.6 94.167,53.397  " style="stroke:url(#CerosGradient_id8ba7d704b);"/><line display="inline" fill="none" stroke="#000000" stroke-width="0.5" stroke-linecap="round" stroke-linejoin="round" stroke-miterlimit="10" x1="70.317" y1="52.93" x2="63.087" y2="45.35" style="stroke:url(#CerosGradient_id8ba7d704b);"/><path display="inline" stroke="#000000" stroke-width="0.5" stroke-linecap="round" stroke-linejoin="round" stroke-miterlimit="10" d="   M9.178,66.458l6.91-9.534l7.26,5.86l-8.047,5.51L9.178,66.458z M40.491,55.525l7.61,3.324l-0.612,4.723l6.56,6.822L65.594,54.3   l-5.248-5.86V38.294l-4.461-4.023L30.607,61.998L40.491,55.525z M89.735,57.595l1.283-3.907l-6.006-5.656l-5.131,5.656   L89.735,57.595z" style="fill:url(#CerosGradient_id8ba7d704b);stroke:url(#CerosGradient_id8ba7d704b);"/></g><g display="none"><path display="inline" stroke="#000000" stroke-width="0.5" stroke-linecap="round" stroke-linejoin="round" stroke-miterlimit="10" d="   M17.4,52.946v-7.999l8.345,13.529L17.4,52.946z M49.938,63.562L31.817,37.245v14.763L49.938,63.562z M65.936,52.255L46.778,23.321   l5.826,20.639L65.936,52.255z M95.167,67.167l-23.7-27.651l2.074,16.393L95.167,67.167z" style="fill:url(#CerosGradient_id8ba7d704b);stroke:url(#CerosGradient_id8ba7d704b);"/><line display="inline" stroke="#000000" stroke-width="0.5" stroke-linecap="round" stroke-linejoin="round" stroke-miterlimit="10" x1="46.778" y1="23.321" x2="37.325" y2="45.244" style="fill:url(#CerosGradient_id8ba7d704b);stroke:url(#CerosGradient_id8ba7d704b);"/><line display="inline" stroke="#000000" stroke-width="0.5" stroke-linecap="round" stroke-linejoin="round" stroke-miterlimit="10" x1="71.466" y1="39.516" x2="65.936" y2="52.255" style="fill:url(#CerosGradient_id8ba7d704b);stroke:url(#CerosGradient_id8ba7d704b);"/><line display="inline" stroke="#000000" stroke-width="0.5" stroke-linecap="round" stroke-linejoin="round" stroke-miterlimit="10" x1="31.817" y1="37.245" x2="21.907" y2="52.255" style="fill:url(#CerosGradient_id8ba7d704b);stroke:url(#CerosGradient_id8ba7d704b);"/><line display="inline" stroke="#000000" stroke-width="0.5" stroke-linecap="round" stroke-linejoin="round" stroke-miterlimit="10" x1="17.4" y1="44.948" x2="5.5" y2="67.167" style="fill:url(#CerosGradient_id8ba7d704b);stroke:url(#CerosGradient_id8ba7d704b);"/></g><g display="none"><path display="inline" stroke="#000000" stroke-width="0.5" stroke-linecap="round" stroke-linejoin="round" stroke-miterlimit="10" d="   M68.295,67.371l11.521-15.518l1.058,10.581L68.295,67.371z M55.715,67.958l11.756-7.759l-1.176-15.518L51.013,67.958H55.715z    M25.972,67.371l16.224-14.108l10.581-1.411l-3.762-11.286l1.999-9.758L25.972,67.371z M17.037,67.958l7.407-5.408V56.32   l2.351-1.881l0.823-8.582L9.395,67.958 M27.618,45.856L33.54,56.32 M51.013,30.808l10.169,21.044 M66.296,44.681l9.932,12.004    M79.816,51.852l9.934,16.106" style="fill:url(#CerosGradient_id8ba7d704b);stroke:url(#CerosGradient_id8ba7d704b);"/></g><g display="none"><polyline display="inline" fill="none" stroke="#000000" stroke-width="0.5" stroke-linecap="round" stroke-linejoin="round" stroke-miterlimit="10" points="   92.847,58.036 79.227,49.804 67.664,57.35  " style="stroke:url(#CerosGradient_id8ba7d704b);"/><polyline display="inline" fill="none" stroke="#000000" stroke-width="0.5" stroke-linecap="round" stroke-linejoin="round" stroke-miterlimit="10" points="   30.33,57.546 19.258,49.804 7.597,57.546  " style="stroke:url(#CerosGradient_id8ba7d704b);"/><path display="inline" fill="none" stroke="#000000" stroke-width="0.5" stroke-linecap="round" stroke-linejoin="round" stroke-miterlimit="10" d="   M76.585,51.528" style="stroke:url(#CerosGradient_id8ba7d704b);"/><path display="inline" stroke="#000000" stroke-width="0.5" stroke-linecap="round" stroke-linejoin="round" stroke-miterlimit="10" d="   M25.704,54.311l9.137-7.974l6.708-5.854c0,0,2.278-1.543,3.969,0c1.69,1.543,1.396,1.249,1.396,1.249l5.402,4.446l-17.209-0.11" style="fill:url(#CerosGradient_id8ba7d704b);stroke:url(#CerosGradient_id8ba7d704b);"/><line display="inline" stroke="#000000" stroke-width="0.5" stroke-linecap="round" stroke-linejoin="round" stroke-miterlimit="10" x1="52.316" y1="46.179" x2="59.384" y2="51.372" style="fill:url(#CerosGradient_id8ba7d704b);stroke:url(#CerosGradient_id8ba7d704b);"/><path display="inline" stroke="#000000" stroke-width="0.5" stroke-linecap="round" stroke-linejoin="round" stroke-miterlimit="10" d="   M77.127,51.174l-6.62-4.996l-5.097-3.846c0,0-1.396-1.2-3.577,0.196c-2.18,1.396-5.561,3.65-5.561,3.65l14.234,0" style="fill:url(#CerosGradient_id8ba7d704b);stroke:url(#CerosGradient_id8ba7d704b);"/><line display="inline" stroke="#000000" stroke-width="0.5" stroke-linecap="round" stroke-linejoin="round" stroke-miterlimit="10" x1="56.273" y1="46.179" x2="54.192" y2="47.557" style="fill:url(#CerosGradient_id8ba7d704b);stroke:url(#CerosGradient_id8ba7d704b);"/></g><g display="none"><polygon display="inline" stroke="#000000" stroke-width="0.5" stroke-miterlimit="10" points="10.125,62.417 14.772,62.417    16.321,59.9 23.291,59.9 25.324,56.027 29.39,56.027 34.908,49.541 34.908,59.416 29.39,62.417 67.532,62.417 59.401,55.253    55.722,53.994 55.915,49.541 58.432,48.476 57.368,46.83 54.173,46.83 50.785,47.992 47.88,47.992 53.205,42.958 52.914,36.472    47.88,40.054 42.169,34.245 34.618,46.443 32.122,46.675 30.455,46.83 28.519,51.768 21.258,49.154  " style="fill:url(#CerosGradient_id8ba7d704b);stroke:url(#CerosGradient_id8ba7d704b);"/><polyline display="inline" fill="none" stroke="#000000" stroke-width="0.5" stroke-miterlimit="10" points="42.169,34.245    40.329,32.89 32.122,46.675  " style="stroke:url(#CerosGradient_id8ba7d704b);"/><polyline display="inline" stroke="#000000" stroke-width="0.5" stroke-miterlimit="10" points="52.914,36.472 67.387,49.638    77.552,49.348 89.75,62.417 83.457,62.417 67.387,49.638  " style="fill:url(#CerosGradient_id8ba7d704b);stroke:url(#CerosGradient_id8ba7d704b);"/><line display="inline" fill="#000000" stroke="#000000" stroke-width="0.5" stroke-miterlimit="10" x1="67.532" y1="62.417" x2="83.457" y2="62.417" style="fill:url(#CerosGradient_id8ba7d704b);stroke:url(#CerosGradient_id8ba7d704b);"/><line display="inline" fill="#000000" stroke="#000000" stroke-width="0.5" stroke-miterlimit="10" x1="29.39" y1="62.417" x2="14.772" y2="62.417" style="fill:url(#CerosGradient_id8ba7d704b);stroke:url(#CerosGradient_id8ba7d704b);"/></g><g display="none"><path display="inline" fill="none" stroke="#000000" stroke-width="0.5" stroke-linecap="round" stroke-linejoin="round" stroke-miterlimit="10" d="   M126.333,60.833" style="stroke:url(#CerosGradient_id8ba7d704b);"/></g><g><path fill="none" stroke="#000000" stroke-width="0.5" stroke-miterlimit="10" d="M88.25,60.15l-6.544-8.98l-8.675-3.729   l-4.566-8.523c0,0-5.707-2.663-10.121-3.653c-4.414-0.989-9.588-5.783-9.588-5.783s-1.294-0.989-3.424,1.218   C43.2,32.907,33.764,42.343,33.764,42.343s-0.457,0.913-3.12,0.761s-3.272-1.134-5.555,1.602c-2.283,2.736-4.033,7.378-6.316,7.378   s-4.794-2.283-6.012,0.837S10.25,60.15,10.25,60.15" style="stroke:url(#CerosGradient_id8ba7d704b);"/><path stroke="#000000" stroke-width="0.5" stroke-miterlimit="10" d="M31.786,59.542h10.958c0,0,2.663-0.38,0-2.968   c-2.663-2.587-11.947-9.132-11.947-9.132s-1.826-1.598-1.902,1.674s0,8.447,0,8.447S28.513,59.542,31.786,59.542z" style="fill:url(#CerosGradient_id8ba7d704b);stroke:url(#CerosGradient_id8ba7d704b);"/><path stroke="#000000" stroke-width="0.5" stroke-miterlimit="10" d="M49.25,32.755c0,0-0.571,13.317,0.571,16.437   c1.141,3.12,3.957,8.523,3.957,8.523s1.218,1.75,4.414,1.826c3.196,0.076,11.719-0.533,19.024,1.065   c7.305,1.598,7.838,1.065,7.838,1.065s1.141,0.152-1.294-2.816c-2.435-2.968-5.707-5.555-9.74-7.458   c-4.033-1.902-7.115-8.789-7.115-8.789s-2.968-3.044-6.697-4.261c-3.729-1.218-10.121-5.936-10.121-5.936   S49.29,31.654,49.25,32.755z" style="fill:url(#CerosGradient_id8ba7d704b);stroke:url(#CerosGradient_id8ba7d704b);"/></g></svg>