<svg xmlns="http://www.w3.org/2000/svg" xmlns:xlink="http://www.w3.org/1999/xlink" version="1.1" x="0px" y="0px" viewBox="0 0 100 100" enable-background="new 0 0 100 100" xml:space="preserve" aria-hidden="true" width="100px" height="100px" style="fill:url(#CerosGradient_id91b5daf0c);"><defs><linearGradient class="cerosgradient" data-cerosgradient="true" id="CerosGradient_id91b5daf0c" gradientUnits="userSpaceOnUse" x1="50%" y1="100%" x2="50%" y2="0%"><stop offset="0%" stop-color="#101010"/><stop offset="100%" stop-color="#101010"/></linearGradient><linearGradient/></defs><g><path d="M42.275,77.357c-0.342-0.34-0.897-0.34-1.24,0l-1.397,1.399c-0.344,0.342-0.344,0.896,0,1.24l9.551,9.555   c0.344,0.34,0.898,0.34,1.24,0l1.399-1.399c0.342-0.342,0.342-0.896,0-1.24L42.275,77.357z" style="fill:url(#CerosGradient_id91b5daf0c);"/><path d="M60.458,71.006c-0.342-0.342-0.896-0.342-1.239,0l-9.552,9.553c-0.344,0.342-0.344,0.898,0,1.24l1.397,1.399   c0.344,0.342,0.898,0.342,1.241,0l9.554-9.553c0.342-0.343,0.342-0.898,0-1.24L60.458,71.006z" style="fill:url(#CerosGradient_id91b5daf0c);"/><path d="M49.188,76.845c0.344,0.342,0.898,0.342,1.24,0l1.399-1.399c0.342-0.342,0.342-0.896,0-1.238l-9.553-9.553   c-0.342-0.342-0.897-0.342-1.24,0l-1.397,1.399c-0.344,0.342-0.344,0.896,0,1.24L49.188,76.845z" style="fill:url(#CerosGradient_id91b5daf0c);"/><path d="M60.458,58.302c-0.342-0.34-0.896-0.343-1.239,0l-9.552,9.551c-0.344,0.343-0.344,0.896,0,1.24l1.397,1.401   c0.344,0.342,0.898,0.342,1.241,0l9.554-9.554c0.342-0.34,0.342-0.897,0-1.24L60.458,58.302z" style="fill:url(#CerosGradient_id91b5daf0c);"/><path d="M61.859,46.997l-1.401-1.398c-0.342-0.343-0.896-0.343-1.239,0l-9.552,9.555c-0.17,0.167-0.258,0.392-0.258,0.617   c0,0.224,0.088,0.446,0.258,0.62l1.397,1.397c0.344,0.343,0.898,0.343,1.241,0l9.554-9.551c0.168-0.17,0.256-0.397,0.256-0.619   C62.115,47.392,62.027,47.167,61.859,46.997z" style="fill:url(#CerosGradient_id91b5daf0c);"/><path d="M39.638,54.588l9.551,9.555c0.344,0.342,0.898,0.342,1.24,0l1.399-1.401c0.172-0.17,0.257-0.396,0.257-0.619   S52,61.672,51.828,61.502l-9.553-9.552c-0.342-0.343-0.897-0.343-1.24,0l-1.397,1.398c-0.172,0.17-0.258,0.396-0.258,0.621   C39.38,54.192,39.466,54.418,39.638,54.588z" style="fill:url(#CerosGradient_id91b5daf0c);"/><path d="M49.188,51.437c0.344,0.343,0.898,0.343,1.24,0l1.399-1.401c0.342-0.34,0.342-0.896,0-1.238l-9.553-9.553   c-0.342-0.342-0.897-0.342-1.24,0l-1.397,1.401c-0.344,0.343-0.344,0.896,0,1.24L49.188,51.437z" style="fill:url(#CerosGradient_id91b5daf0c);"/><path d="M60.458,32.894c-0.342-0.34-0.896-0.34-1.239,0l-9.552,9.554c-0.344,0.344-0.344,0.897,0,1.237l1.397,1.399   c0.344,0.342,0.898,0.342,1.241,0l9.554-9.553c0.342-0.342,0.342-0.896,0-1.238L60.458,32.894z" style="fill:url(#CerosGradient_id91b5daf0c);"/><path d="M39.638,29.18l9.551,9.555c0.344,0.34,0.898,0.34,1.24,0l1.399-1.401c0.175-0.175,0.259-0.406,0.254-0.633   c0.005-0.231-0.078-0.46-0.254-0.636l-9.553-9.55c-0.342-0.343-0.897-0.343-1.24,0l-1.397,1.398   c-0.175,0.174-0.261,0.403-0.255,0.633C39.377,28.775,39.463,29.005,39.638,29.18z" style="fill:url(#CerosGradient_id91b5daf0c);"/><path d="M61.859,21.56l-1.401-1.399c-0.342-0.342-0.896-0.342-1.239,0l-9.552,9.553c-0.175,0.175-0.259,0.404-0.258,0.634   c-0.001,0.229,0.083,0.46,0.258,0.635l1.397,1.399c0.344,0.34,0.898,0.34,1.241,0l9.554-9.554c0.173-0.173,0.257-0.405,0.253-0.633   C62.116,21.964,62.032,21.736,61.859,21.56z" style="fill:url(#CerosGradient_id91b5daf0c);"/><path d="M49.188,26.001c0.344,0.34,0.898,0.34,1.24,0l1.399-1.4c0.342-0.342,0.342-0.897,0-1.239l-9.553-9.553   c-0.342-0.342-0.897-0.342-1.24,0l-1.397,1.399c-0.344,0.342-0.344,0.896,0,1.238L49.188,26.001z" style="fill:url(#CerosGradient_id91b5daf0c);"/><path d="M60.458,7.456c-0.342-0.34-0.896-0.34-1.239,0l-9.552,9.555c-0.344,0.342-0.344,0.896,0,1.238l1.397,1.399   c0.344,0.342,0.898,0.342,1.241,0l9.554-9.553c0.342-0.342,0.342-0.896,0-1.238L60.458,7.456z" style="fill:url(#CerosGradient_id91b5daf0c);"/></g></svg>