<svg xmlns="http://www.w3.org/2000/svg" version="1.1" x="0px" y="0px" viewBox="0 0 100 100" enable-background="new 0 0 100 100" xml:space="preserve" aria-hidden="true" width="100px" height="100px"><defs><linearGradient class="cerosgradient" data-cerosgradient="true" id="CerosGradient_id83946b2d1" gradientUnits="userSpaceOnUse" x1="50%" y1="100%" x2="50%" y2="0%"><stop offset="0%" stop-color="#d1d1d1"/><stop offset="100%" stop-color="#d1d1d1"/></linearGradient><linearGradient/></defs><path d="M57.551 89.778l0.266-0.193 -0.266 0.052c0.281-0.214 0.66-0.497 0.932-0.722 0.186-0.252 0.441-0.588 0.619-0.845 0.514-0.282 0.732-0.402 0.958-0.555 0.279-0.496 0.524-1.014 0.732-1.551 -0.006 0.005-0.014 0.012-0.021 0.017l-0.492 0.709c-0.275 0.109-0.65 0.248-0.936 0.337l0.225-0.234 -0.227 0.065c0.238-0.258 0.559-0.6 0.783-0.865 0.152-0.295 0.359-0.686 0.504-0.983 0.306-0.238 0.478-0.373 0.617-0.496 0.231-0.933 0.367-1.904 0.367-2.91v-2.457c-0.117 0.396-0.247 0.825-0.359 1.172 -0.148 0.081-0.342 0.195-0.494 0.27l-0.492 0.749c-0.279 0.022-0.656 0.046-0.938 0.051l0.227-0.242 -0.227-0.001c0.236-0.265 0.557-0.616 0.783-0.888 0.15-0.339 0.357-0.788 0.502-1.129 0.588-0.298 0.688-0.35 0.998-0.58v-6.489c-0.122 0.434-0.259 0.912-0.375 1.295 -0.148 0.035-0.344 0.087-0.496 0.117l-0.49 0.736c-0.281-0.062-0.658-0.147-0.938-0.218l0.227-0.233 -0.229-0.061c0.238-0.253 0.557-0.587 0.783-0.845 0.152-0.353 0.357-0.821 0.504-1.176 0.543-0.123 0.688-0.159 1.014-0.281V63.89c-0.127 0.451-0.271 0.958-0.393 1.36 -0.148-0.012-0.348-0.025-0.496-0.039l-0.49 0.686c-0.283-0.143-0.658-0.332-0.939-0.476l0.227-0.212 -0.227-0.117c0.236-0.228 0.553-0.529 0.783-0.763 0.15-0.352 0.355-0.819 0.502-1.173 0.552 0.037 0.691 0.045 1.033 0.05v-8.268c-0.133 0.453-0.285 0.973-0.412 1.384 -0.148-0.061-0.348-0.141-0.496-0.199l-0.49 0.606c-0.281-0.217-0.656-0.506-0.941-0.719l0.227-0.183 -0.227-0.172c0.236-0.193 0.553-0.451 0.783-0.649 0.152-0.338 0.355-0.786 0.502-1.126 0.545 0.2 0.7 0.258 1.055 0.402v-8.681c-0.137 0.423-0.299 0.919-0.434 1.312 -0.148-0.104-0.344-0.246-0.496-0.347l-0.492 0.491c-0.277-0.278-0.652-0.649-0.939-0.922l0.227-0.142 -0.227-0.216c0.236-0.146 0.549-0.342 0.783-0.492 0.15-0.299 0.355-0.697 0.502-0.998 0.567 0.362 0.705 0.451 1.076 0.741v-8.341c-0.141 0.354-0.314 0.782-0.453 1.116 -0.148-0.142-0.344-0.333-0.498-0.471l-0.49 0.341c-0.277-0.32-0.652-0.744-0.941-1.057l0.227-0.09 -0.227-0.243c0.234-0.091 0.549-0.212 0.783-0.302 0.152-0.242 0.355-0.564 0.504-0.808 0.646 0.561 0.708 0.618 1.096 1.044v-7.655c-0.146 0.269-0.328 0.609-0.471 0.867 -0.15-0.171-0.344-0.404-0.498-0.572l-0.492 0.179c-0.277-0.348-0.65-0.809-0.939-1.148l0.227-0.036 -0.229-0.264c0.236-0.033 0.549-0.078 0.785-0.104 0.15-0.177 0.354-0.413 0.504-0.591 0.655 0.696 0.709 0.756 1.113 1.313v-6.663c-0.149 0.168-0.343 0.389-0.488 0.556 -0.148-0.195-0.34-0.459-0.496-0.649l-0.494 0.015c-0.275-0.362-0.646-0.842-0.939-1.194l0.227 0.018 -0.229-0.27c0.236 0.025 0.553 0.058 0.787 0.094 0.15-0.104 0.35-0.245 0.504-0.347 0.664 0.801 0.709 0.856 1.129 1.521v-3.077c0-0.684-0.069-1.35-0.178-2.002 -0.113 0.028-0.228 0.059-0.322 0.09 -0.15-0.204-0.342-0.481-0.498-0.681l-0.492-0.173c-0.275-0.348-0.648-0.807-0.941-1.143l0.227 0.077 -0.227-0.256c0.236 0.089 0.555 0.206 0.785 0.309 0.152-0.018 0.352-0.046 0.504-0.054 0.46 0.583 0.624 0.792 0.82 1.1 -0.253-1.094-0.648-2.13-1.176-3.084 -0.13-0.001-0.262 0-0.373 0.007 -0.189-0.182-0.438-0.428-0.637-0.604l-0.607-0.184c-0.33-0.29-0.775-0.671-1.123-0.946l0.268 0.07 -0.268-0.207c0.281 0.083 0.658 0.19 0.934 0.287 0.188 0.004 0.436 0.003 0.621 0.019 0.183 0.16 0.323 0.284 0.445 0.392 -0.746-1.045-1.652-1.961-2.687-2.711 0.056 0.055 0.118 0.114 0.167 0.164l-0.141-0.055 0.141 0.15c-1.061-0.376-1.896-0.673-3.688-0.85 -0.295-0.197-0.691-0.456-1-0.634l0.168 0.005 -0.17-0.091c1.028 0.06 1.876 0.112 3.149 0.452 -1.612-0.854-3.44-1.345-5.384-1.345 -1.844 0-3.581 0.447-5.131 1.222 0.752-0.182 1.565-0.315 2.845-0.353l-0.167 0.089 0.168-0.003c-0.304 0.18-0.704 0.426-0.993 0.624 -1.17 0.127-2.094 0.228-3.687 0.814l0.099-0.106c-0.869 0.645-1.646 1.405-2.311 2.265 0.048-0.04 0.093-0.079 0.149-0.125 0.187-0.005 0.439 0.012 0.624-0.013 0.28-0.087 0.652-0.206 0.938-0.279l-0.267 0.205 0.268-0.068c-0.342 0.274-0.794 0.644-1.12 0.933l-0.611 0.179c-0.19 0.178-0.451 0.411-0.634 0.595 -0.086-0.004-0.187-0.007-0.288-0.009 -0.521 0.919-0.919 1.916-1.184 2.968 0.23-0.355 0.367-0.528 0.75-0.993 0.153 0.017 0.357 0.074 0.51 0.058 0.235-0.094 0.549-0.22 0.791-0.301l-0.228 0.253 0.229-0.074c-0.289 0.335-0.668 0.786-0.939 1.131l-0.496 0.167c-0.15 0.203-0.358 0.469-0.5 0.677 -0.089-0.028-0.194-0.059-0.299-0.087 -0.123 0.691-0.197 1.4-0.197 2.128v63.392c0 0.861 0.095 1.699 0.266 2.509 0.537 0.53 0.59 0.58 1.144 0.97 0.156 0.295 0.323 0.708 0.523 0.982 0.239 0.259 0.556 0.606 0.807 0.856l-0.231-0.062 0.232 0.232c-0.292-0.089-0.678-0.213-0.96-0.321l-0.509-0.704c-0.155-0.121-0.367-0.278-0.515-0.406 -0.092-0.239-0.199-0.521-0.303-0.801 0.277 0.992 0.678 1.929 1.184 2.797 -0.053-0.096-0.111-0.199-0.157-0.286l0.12 0.09 -0.121-0.233c0.766 0.527 0.812 0.559 1.515 0.91 0.19 0.253 0.405 0.615 0.636 0.841 0.283 0.216 0.659 0.506 0.953 0.712l-0.271-0.048 0.272 0.19c-0.344-0.071-0.802-0.172-1.139-0.265l-0.623-0.599c-0.153-0.085-0.342-0.187-0.511-0.283 0.815 1.117 1.811 2.088 2.955 2.854 0.24-0.078 0.509-0.172 0.722-0.259 1.125 0.396 2.014 0.707 3.858 0.897l-0.168 0.102 0.169 0.016c-0.295 0.163-0.692 0.375-1 0.521 -0.824-0.154-1.531-0.29-2.431-0.604 1.583 0.817 3.369 1.288 5.266 1.288 1.602 0 3.127-0.33 4.517-0.924 -0.325 0.081-0.682 0.158-1.093 0.233 -0.305-0.145-0.707-0.343-1-0.505l0.168-0.018 -0.168-0.1c1.199-0.164 2.148-0.294 3.82-0.946 0.119 0.044 0.258 0.095 0.397 0.143 0.765-0.54 1.458-1.175 2.075-1.881C58.317 89.595 57.884 89.709 57.551 89.778zM42.769 77.886c-0.339 0.079-0.792 0.182-1.134 0.249l-0.621-0.699c-0.194-0.031-0.453-0.067-0.646-0.104 -0.211-0.506-0.491-1.18-0.692-1.688l0.12 0.035 -0.121-0.311c0.685 0.176 0.808 0.207 1.507 0.311 0.19 0.34 0.377 0.828 0.635 1.134 0.283 0.238 0.659 0.558 0.95 0.788l-0.27 0.069L42.769 77.886zM42.731 69.505c-0.338 0.144-0.791 0.335-1.132 0.474l-0.62-0.683c-0.193 0.01-0.451 0.025-0.644 0.03 -0.211-0.524-0.489-1.225-0.69-1.752l0.119 0.005 -0.12-0.317c0.684 0.014 0.807 0.016 1.503-0.012 0.189 0.352 0.368 0.86 0.634 1.174 0.283 0.228 0.66 0.532 0.949 0.754l-0.27 0.118L42.731 69.505zM42.691 60.124c-0.339 0.206-0.792 0.48-1.131 0.687l-0.619-0.638c-0.193 0.05-0.449 0.118-0.643 0.167 -0.209-0.522-0.487-1.221-0.688-1.745l0.118-0.025 -0.119-0.315c0.701-0.158 0.827-0.187 1.499-0.343 0.189 0.351 0.359 0.862 0.633 1.17 0.283 0.207 0.66 0.484 0.948 0.688l-0.269 0.164L42.691 60.124zM42.649 50.08c-0.34 0.263-0.792 0.613-1.128 0.88l-0.617-0.57c-0.192 0.091-0.45 0.21-0.641 0.303 -0.208-0.501-0.485-1.169-0.687-1.672l0.118-0.055 -0.119-0.298c0.69-0.321 0.796-0.37 1.495-0.662 0.19 0.333 0.354 0.827 0.632 1.11 0.284 0.178 0.661 0.415 0.946 0.591l-0.268 0.206L42.649 50.08zM42.608 40.055c-0.341 0.293-0.793 0.687-1.127 0.986l-0.616-0.445c-0.192 0.122-0.45 0.282-0.64 0.408 -0.207-0.431-0.481-1.004-0.685-1.436l0.118-0.081 -0.119-0.253c0.69-0.459 0.796-0.53 1.492-0.925 0.189 0.286 0.357 0.724 0.63 0.953 0.284 0.131 0.661 0.306 0.944 0.438l-0.268 0.228L42.608 40.055zM42.568 30.71c-0.342 0.313-0.794 0.733-1.125 1.056l-0.615-0.306c-0.192 0.148-0.451 0.343-0.638 0.495 -0.206-0.346-0.479-0.807-0.683-1.153l0.117-0.103L39.507 30.5c0.688-0.579 0.794-0.668 1.488-1.148 0.188 0.228 0.368 0.594 0.629 0.761 0.283 0.082 0.661 0.188 0.942 0.274l-0.268 0.24L42.568 30.71zM42.531 22.379c-0.343 0.32-0.794 0.751-1.124 1.082l-0.613-0.157c-0.191 0.168-0.451 0.389-0.637 0.562 -0.203-0.25-0.475-0.583-0.681-0.831l0.117-0.12 -0.118-0.142c0.748-0.73 0.793-0.774 1.485-1.321 0.188 0.164 0.388 0.444 0.628 0.546 0.283 0.028 0.66 0.064 0.941 0.101l-0.268 0.244L42.531 22.379zM40.93 15.07c0.188 0.08 0.42 0.238 0.626 0.271 0.281-0.03 0.656-0.073 0.939-0.091l-0.268 0.23 0.269-0.015c-0.342 0.306-0.794 0.72-1.122 1.039l-0.612 0.01c-0.19 0.179-0.451 0.413-0.635 0.597 -0.201-0.133-0.47-0.309-0.678-0.434l0.117-0.13 -0.118-0.065C40.194 15.695 40.239 15.648 40.93 15.07zM38.26 21.165c0.557-0.836 0.59-0.886 1.145-1.524 0.154 0.105 0.361 0.244 0.512 0.353 0.237-0.029 0.553-0.068 0.792-0.087l-0.228 0.268 0.229-0.016c-0.289 0.352-0.669 0.823-0.941 1.185l-0.498-0.021c-0.151 0.193-0.358 0.447-0.501 0.645 -0.152-0.173-0.354-0.403-0.51-0.573l0.085-0.137L38.26 21.165zM38.285 28.105c0.559-0.729 0.593-0.771 1.149-1.336 0.154 0.18 0.293 0.481 0.513 0.598 0.239 0.031 0.557 0.073 0.795 0.111l-0.228 0.261 0.229 0.039c-0.289 0.338-0.669 0.792-0.943 1.14l-0.5-0.184c-0.151 0.171-0.358 0.393-0.502 0.567 -0.155-0.276-0.361-0.644-0.513-0.921l0.086-0.118L38.285 28.105zM38.313 36.142c0.561-0.585 0.595-0.621 1.153-1.084 0.154 0.244 0.278 0.626 0.515 0.813 0.239 0.093 0.558 0.215 0.797 0.31l-0.228 0.242 0.229 0.092c-0.288 0.312-0.668 0.729-0.945 1.049l-0.501-0.344c-0.151 0.141-0.358 0.323-0.504 0.466 -0.157-0.369-0.364-0.863-0.515-1.234l0.086-0.095L38.313 36.142zM38.343 44.974c0.517-0.383 0.596-0.442 1.157-0.784 0.155 0.301 0.276 0.748 0.517 1.004 0.239 0.149 0.558 0.35 0.798 0.497l-0.229 0.215 0.23 0.143c-0.287 0.273-0.668 0.64-0.948 0.919l-0.502-0.495c-0.152 0.104-0.357 0.238-0.506 0.345 -0.158-0.452-0.367-1.056-0.517-1.51l0.086-0.066L38.343 44.974zM38.374 54.242c0.527-0.207 0.595-0.233 1.162-0.435 0.155 0.339 0.281 0.828 0.519 1.129 0.239 0.197 0.557 0.461 0.8 0.653l-0.23 0.172 0.231 0.185c-0.286 0.214-0.667 0.501-0.95 0.719l-0.504-0.609c-0.152 0.061-0.356 0.139-0.508 0.199 -0.16-0.503-0.37-1.173-0.519-1.677l0.087-0.034L38.374 54.242zM38.403 63.17c0.515-0.011 0.607-0.014 1.167-0.055 0.155 0.353 0.291 0.854 0.52 1.175 0.239 0.23 0.556 0.539 0.802 0.765l-0.23 0.118 0.231 0.213c-0.285 0.145-0.666 0.336-0.952 0.479l-0.505-0.686c-0.153 0.012-0.356 0.031-0.51 0.041 -0.16-0.52-0.372-1.214-0.521-1.736l0.088 0.001L38.403 63.17zM38.432 71.354c0.526 0.179 0.607 0.205 1.171 0.316 0.155 0.354 0.299 0.851 0.521 1.178 0.238 0.255 0.556 0.595 0.804 0.843l-0.23 0.062 0.231 0.232c-0.285 0.071-0.667 0.164-0.955 0.227l-0.507-0.735c-0.153-0.034-0.36-0.073-0.511-0.112 -0.161-0.519-0.374-1.21-0.523-1.73l0.087 0.034L38.432 71.354zM39.496 80.634c-0.154-0.079-0.364-0.178-0.513-0.263 -0.048-0.146-0.101-0.308-0.155-0.474l-0.281-1.101 -0.089-0.302c0.575 0.386 0.609 0.409 1.175 0.666 0.156 0.339 0.31 0.814 0.522 1.13 0.239 0.267 0.556 0.624 0.806 0.883l-0.231 0.004 0.232 0.24c-0.288-0.004-0.671-0.015-0.958-0.037L39.496 80.634zM41.667 84.863l-0.622-0.67c-0.195-0.071-0.457-0.16-0.647-0.239 -0.213-0.452-0.494-1.055-0.693-1.511l0.12 0.063 -0.121-0.281c0.764 0.37 0.81 0.393 1.51 0.624 0.19 0.307 0.39 0.747 0.636 1.022 0.283 0.235 0.659 0.55 0.952 0.776l-0.271 0.011 0.271 0.21C42.463 84.874 42.008 84.876 41.667 84.863zM42.993 12.318c0.252-0.376 0.591-0.876 0.857-1.245 1.113-0.237 1.992-0.424 3.827-0.401l-0.167 0.167 0.168 0.003c-0.303 0.32-0.703 0.75-0.992 1.08 -1.171 0.065-2.095 0.117-3.691 0.573l0.14-0.22L42.993 12.318zM43.026 18.193c0.252-0.49 0.592-1.142 0.857-1.627 1.114-0.148 1.994-0.265 3.83-0.161l-0.167 0.24 0.168 0.01c-0.302 0.448-0.702 1.047-0.992 1.502 -1.425-0.004-2.254 0.022-3.695 0.29l0.14-0.281L43.026 18.193zM43.063 25.876c0.254-0.563 0.595-1.313 0.857-1.873 1.243-0.06 2.121-0.085 3.833 0.076l-0.167 0.29 0.169 0.018c-0.301 0.532-0.7 1.243-0.993 1.779 -1.425-0.078-2.255-0.104-3.699 0.014l0.14-0.316L43.063 25.876zM43.103 34.759c0.255-0.606 0.596-1.415 0.858-2.02 1.244 0.046 2.123 0.089 3.837 0.304l-0.167 0.324 0.169 0.021c-0.301 0.592-0.699 1.381-0.993 1.975 -1.426-0.149-2.256-0.224-3.703-0.263l0.14-0.339L43.103 34.759zM43.144 44.508c0.255-0.627 0.598-1.463 0.859-2.089 1.248 0.15 2.128 0.261 3.84 0.52l-0.167 0.347 0.169 0.026c-0.3 0.629-0.698 1.469-0.993 2.1 -1.417-0.214-2.244-0.337-3.707-0.536l0.141-0.348L43.144 44.508zM43.187 54.725c0.257-0.613 0.601-1.432 0.86-2.043 1.244 0.247 2.124 0.419 3.844 0.709l-0.167 0.352 0.169 0.028c-0.299 0.629-0.696 1.467-0.993 2.095 -1.313-0.246-2.218-0.42-3.711-0.772l0.141-0.335L43.187 54.725zM43.229 64.562c0.258-0.552 0.603-1.287 0.861-1.839 1.248 0.325 2.129 0.544 3.847 0.84l-0.167 0.329 0.169 0.028c-0.298 0.582-0.695 1.358-0.994 1.94 -1.433-0.301-2.266-0.493-3.714-0.954l0.141-0.299L43.229 64.562zM43.268 73.58c0.26-0.471 0.605-1.101 0.863-1.573 1.249 0.388 2.132 0.644 3.851 0.935l-0.168 0.295 0.169 0.028c-0.297 0.516-0.695 1.203-0.996 1.717 -1.433-0.319-2.267-0.532-3.718-1.091l0.141-0.254L43.268 73.58zM43.306 81.446c0.262-0.375 0.608-0.875 0.865-1.253 1.251 0.433 2.134 0.715 3.854 0.987l-0.168 0.249 0.169 0.026c-0.296 0.431-0.693 1.004-0.997 1.43 -1.434-0.324-2.268-0.547-3.722-1.18l0.142-0.197L43.306 81.446zM47.065 88.96c-1.179-0.25-2.11-0.447-3.725-1.182l0.142-0.118 -0.143-0.065c0.264-0.234 0.613-0.549 0.867-0.791 1.124 0.402 2.012 0.721 3.856 0.968l-0.168 0.179 0.169 0.022C47.769 88.271 47.372 88.669 47.065 88.96zM51.205 47.533c-0.23 0.127-0.459 0.254-0.688 0.38v0.747l0.002 0.384c-0.398-0.002-0.795-0.003-1.192-0.005l0-0.383 -0.001-0.73c-0.245-0.133-0.49-0.267-0.735-0.401l0.035-0.365 -0.036-0.021c0.046-0.48 0.108-1.12 0.154-1.601 0.541 0.302 0.541 0.302 1.144 0.638 0.382-0.21 0.763-0.42 1.144-0.631 0.053 0.481 0.121 1.122 0.172 1.603l-0.039 0.021L51.205 47.533zM48.494 7.722c0.045-0.125 0.109-0.289 0.157-0.412 0.533 0.072 0.945 0.131 1.143 0.16 0.539-0.074 0.89-0.12 1.146-0.153 0.053 0.124 0.119 0.289 0.17 0.413L51.07 7.737l0.039 0.103c-0.23 0.036-0.459 0.072-0.689 0.108v0.228l0.001 0.122c-0.397-0.001-0.795-0.003-1.192-0.004l0-0.122V8.082 7.949c-0.335-0.055-0.548-0.088-0.735-0.119l0.036-0.103L48.494 7.722zM48.501 11.899c0.045-0.234 0.108-0.547 0.156-0.781 0.534 0.141 0.945 0.252 1.143 0.306 0.539-0.142 0.875-0.229 1.146-0.299 0.053 0.235 0.119 0.549 0.17 0.784l-0.039 0.011 0.039 0.187c-0.23 0.065-0.459 0.131-0.687 0.197v0.377 0.21c-0.396-0.001-0.794-0.003-1.191-0.004l-0.001-0.578c-0.245-0.07-0.49-0.141-0.734-0.211l0.036-0.187L48.501 11.899zM48.513 18.447c0.046-0.338 0.108-0.788 0.155-1.127 0.533 0.204 0.977 0.377 1.144 0.443 0.539-0.207 0.833-0.318 1.146-0.436 0.051 0.339 0.119 0.789 0.17 1.128l-0.039 0.016 0.039 0.265c-0.229 0.094-0.459 0.187-0.687 0.28l0.002 0.589v0.289c-0.397-0.002-0.795-0.003-1.192-0.004l-0.001-0.84v-0.024c-0.245-0.1-0.49-0.199-0.735-0.298l0.036-0.267L48.513 18.447zM48.528 26.875c0.046-0.405 0.108-0.947 0.155-1.353 0.195 0.09 0.833 0.39 1.144 0.535 0.225-0.104 0.769-0.355 1.146-0.528 0.051 0.406 0.119 0.948 0.17 1.354l-0.039 0.019 0.039 0.314c-0.229 0.109-0.457 0.22-0.687 0.33l0.002 0.656v0.339c-0.396-0.001-0.794-0.003-1.191-0.004L49.265 27.7v-0.142c-0.245-0.117-0.49-0.232-0.735-0.35l0.036-0.316L48.528 26.875zM48.547 36.556c0.046-0.455 0.108-1.062 0.154-1.517 0.381 0.199 0.763 0.4 1.144 0.601 0.382-0.198 0.762-0.396 1.145-0.594 0.051 0.456 0.119 1.063 0.172 1.519l-0.039 0.021 0.039 0.352c-0.229 0.123-0.459 0.245-0.687 0.367l0.002 0.687v0.375c-0.397-0.002-0.794-0.003-1.192-0.004l-0.002-1.045c-0.22-0.117-0.481-0.255-0.735-0.389l0.036-0.353L48.547 36.556zM48.589 57.95c0.046-0.48 0.108-1.121 0.154-1.601 0.541 0.302 0.541 0.302 1.144 0.638 0.382-0.21 0.763-0.421 1.144-0.631 0.053 0.48 0.121 1.122 0.172 1.603l-0.039 0.021 0.041 0.364c-0.23 0.127-0.459 0.254-0.688 0.38v0.747l0.002 0.384c-0.398-0.002-0.795-0.003-1.192-0.005l0-0.384 -0.001-0.729c-0.245-0.133-0.49-0.268-0.735-0.401l0.035-0.365L48.589 57.95zM48.609 68.176c0.046-0.443 0.108-1.034 0.154-1.478 0.381 0.197 0.762 0.394 1.143 0.59 0.383-0.194 0.763-0.389 1.146-0.583 0.051 0.443 0.119 1.035 0.17 1.479l-0.037 0.02 0.039 0.335c-0.203 0.104-0.479 0.245-0.688 0.35v0.646l0.002 0.35c-0.398-0.001-0.794-0.002-1.192-0.004L49.345 68.9c-0.245-0.123-0.49-0.246-0.735-0.369l0.036-0.337L48.609 68.176zM48.627 77.368c0.047-0.39 0.108-0.909 0.155-1.299 0.537 0.245 0.932 0.424 1.144 0.52 0.188-0.084 0.766-0.342 1.145-0.513 0.051 0.391 0.119 0.91 0.17 1.3l-0.037 0.018 0.039 0.293c-0.229 0.102-0.459 0.202-0.688 0.304v0.629l0.002 0.303c-0.398-0.002-0.795-0.003-1.192-0.005l0-0.303 -0.001-0.431V78c-0.246-0.107-0.491-0.214-0.735-0.322l0.036-0.294L48.627 77.368zM48.642 85.098c0.047-0.311 0.109-0.725 0.155-1.034 0.535 0.198 0.946 0.347 1.143 0.419 0.355-0.127 0.742-0.265 1.146-0.411 0.049 0.311 0.117 0.725 0.17 1.035l-0.039 0.014 0.039 0.229c-0.229 0.079-0.459 0.158-0.688 0.237v0.459l0.002 0.231c-0.398-0.002-0.795-0.003-1.192-0.005l0-0.23 -0.001-0.448c-0.245-0.083-0.49-0.167-0.735-0.251l0.036-0.232L48.642 85.098zM51.266 90.82c-0.229 0.051-0.459 0.101-0.688 0.15v0.275 0.145c-0.397-0.002-0.794-0.003-1.191-0.005l-0.001-0.412c-0.245-0.054-0.49-0.107-0.734-0.162l0.036-0.148 -0.037-0.009c0.048-0.204 0.11-0.478 0.156-0.682 0.356 0.089 0.741 0.183 1.143 0.28 0.536-0.126 0.875-0.207 1.146-0.272 0.049 0.205 0.117 0.479 0.17 0.683l-0.039 0.009L51.266 90.82zM52.174 10.704c1.201 0.018 2.15 0.032 3.826 0.439 0.264 0.374 0.613 0.875 0.865 1.256l-0.143-0.043 0.143 0.22c-1.061-0.292-1.898-0.524-3.688-0.611 -0.297-0.331-0.693-0.77-1.004-1.091l0.17-0.002L52.174 10.704zM52.188 16.444c1.199-0.038 2.148-0.068 3.824 0.2 0.264 0.489 0.613 1.144 0.865 1.637l-0.141-0.029 0.143 0.283c-1.182-0.212-2.02-0.339-3.688-0.328 -0.297-0.456-0.695-1.062-1.004-1.514l0.168-0.008L52.188 16.444zM52.203 24.122c1.461-0.106 2.314-0.145 3.824-0.038 0.264 0.563 0.613 1.314 0.867 1.881l-0.141-0.015 0.141 0.318c-1.18-0.093-2.018-0.143-3.688-0.049 -0.297-0.539-0.695-1.256-1.002-1.791l0.168-0.016L52.203 24.122zM52.225 33.088c1.459-0.16 2.312-0.239 3.822-0.269 0.264 0.606 0.611 1.415 0.867 2.024l-0.141 0.002 0.143 0.341c-1.182 0.03-2.021 0.061-3.688 0.232 -0.299-0.597-0.699-1.391-1.004-1.984l0.168-0.021L52.225 33.088zM52.246 42.983c1.457-0.207 2.309-0.323 3.822-0.493 0.262 0.628 0.611 1.465 0.867 2.094l-0.141 0.018 0.141 0.35c-1.191 0.157-2.033 0.271-3.686 0.513 -0.299-0.633-0.699-1.476-1.004-2.106l0.17-0.024L52.246 42.983zM52.27 53.436c1.34-0.225 2.266-0.384 3.822-0.694 0.26 0.613 0.607 1.431 0.867 2.045l-0.141 0.033 0.141 0.335c-1.176 0.27-2.01 0.455-3.686 0.758 -0.301-0.629-0.701-1.468-1.004-2.097l0.168-0.028L52.27 53.436zM52.291 63.604c1.461-0.262 2.316-0.43 3.822-0.836 0.26 0.551 0.607 1.285 0.867 1.836l-0.141 0.045 0.141 0.299c-1.178 0.366-2.014 0.613-3.684 0.951 -0.303-0.581-0.705-1.356-1.004-1.938l0.168-0.028L52.291 63.604zM52.312 72.977c1.461-0.269 2.314-0.449 3.822-0.944 0.258 0.471 0.604 1.098 0.865 1.566l-0.141 0.056L57 73.906c-1.178 0.446-2.014 0.744-3.684 1.104 -0.303-0.514-0.705-1.198-1.004-1.712l0.168-0.029L52.312 72.977zM52.33 81.209c1.461-0.265 2.314-0.45 3.822-1.011 0.258 0.373 0.602 0.87 0.865 1.24l-0.141 0.064 0.141 0.195c-1.059 0.454-1.895 0.813-3.684 1.206 -0.305-0.424-0.707-0.992-1.002-1.421l0.168-0.027L52.33 81.209zM57.031 87.745c-1.059 0.477-1.895 0.853-3.684 1.221 -0.305-0.289-0.709-0.677-1.002-0.976l0.17-0.022 -0.17-0.177c1.199-0.195 2.148-0.351 3.82-1.006 0.256 0.235 0.6 0.549 0.865 0.776l-0.141 0.067L57.031 87.745zM57.387 15.342c0.279 0.027 0.654 0.062 0.934 0.101 0.186-0.081 0.43-0.193 0.619-0.268 0.844 0.739 0.895 0.783 1.48 1.43l-0.115 0.065 0.115 0.131c-0.203 0.125-0.471 0.294-0.666 0.427 -0.191-0.181-0.439-0.428-0.637-0.604l-0.607-0.016c-0.33-0.32-0.777-0.744-1.123-1.052l0.266 0.019L57.387 15.342zM57.4 22.193c0.279-0.029 0.654-0.07 0.934-0.092 0.186-0.162 0.432-0.38 0.619-0.54 0.844 0.697 0.895 0.738 1.48 1.338l-0.115 0.14 0.117 0.121c-0.201 0.247-0.469 0.577-0.668 0.826 -0.189-0.172-0.439-0.403-0.637-0.57l-0.605 0.151c-0.332-0.332-0.779-0.771-1.123-1.094l0.268-0.033L57.4 22.193zM57.42 30.479c0.279-0.08 0.652-0.188 0.932-0.265 0.188-0.227 0.434-0.528 0.619-0.755 0.758 0.548 0.895 0.646 1.48 1.161l-0.115 0.199 0.115 0.104c-0.199 0.344-0.465 0.803-0.666 1.146 -0.189-0.15-0.439-0.354-0.635-0.501l-0.607 0.3c-0.332-0.323-0.779-0.751-1.123-1.065l0.268-0.08L57.42 30.479zM57.439 39.786c0.281-0.129 0.652-0.302 0.934-0.432 0.186-0.283 0.434-0.66 0.619-0.945 0.756 0.447 0.895 0.527 1.479 0.936l-0.117 0.251 0.117 0.082c-0.197 0.428-0.463 1-0.666 1.427 -0.189-0.123-0.441-0.29-0.635-0.411l-0.605 0.439c-0.334-0.301-0.783-0.699-1.125-0.993l0.268-0.125L57.439 39.786zM57.463 49.779c0.279-0.175 0.654-0.408 0.932-0.586 0.186-0.331 0.436-0.771 0.619-1.104 0.758 0.326 0.895 0.386 1.479 0.668l-0.117 0.296 0.117 0.056c-0.197 0.501-0.461 1.167-0.664 1.665 -0.191-0.091-0.445-0.215-0.637-0.305l-0.605 0.565c-0.336-0.266-0.783-0.619-1.123-0.882l0.268-0.166L57.463 49.779zM57.484 59.82c0.281-0.204 0.656-0.475 0.932-0.684 0.186-0.35 0.438-0.814 0.619-1.166 0.865 0.203 0.865 0.203 1.477 0.344l-0.115 0.313 0.117 0.025c-0.197 0.522-0.459 1.219-0.666 1.739 -0.189-0.051-0.443-0.117-0.635-0.168l-0.605 0.637c-0.336-0.205-0.785-0.479-1.121-0.685l0.266-0.191L57.484 59.82zM57.506 69.207c0.281-0.225 0.656-0.523 0.932-0.755 0.186-0.352 0.438-0.819 0.617-1.173 0.771 0.023 0.891 0.027 1.479 0.008l-0.117 0.317 0.117-0.006c-0.195 0.525-0.459 1.225-0.666 1.747 -0.189-0.008-0.443-0.017-0.633-0.027l-0.607 0.683c-0.336-0.139-0.785-0.326-1.121-0.47l0.266-0.207L57.506 69.207zM57.523 77.604c0.281-0.235 0.658-0.549 0.932-0.793 0.188-0.339 0.438-0.792 0.619-1.134 0.771-0.132 0.889-0.151 1.477-0.321l-0.115 0.309 0.115-0.036c-0.195 0.508-0.459 1.184-0.664 1.688 -0.191 0.033-0.443 0.083-0.635 0.11l-0.605 0.701c-0.338-0.068-0.787-0.162-1.123-0.241l0.268-0.216L57.523 77.604zM57.539 84.622c0.283-0.232 0.66-0.541 0.932-0.781 0.188-0.308 0.439-0.716 0.619-1.026 0.84-0.309 0.891-0.327 1.475-0.641l-0.115 0.28 0.117-0.065c-0.195 0.456-0.457 1.062-0.666 1.512 -0.189 0.075-0.439 0.182-0.635 0.249l-0.605 0.673c-0.336 0.014-0.783 0.024-1.121 0.02l0.268-0.211L57.539 84.622z"/></svg>